/vscmnt/brussel_pixiu_data/_data_brussel/112/vsc11236/PredSimResults/SUBJ04mtu3D/weighted-LRposFixed/trackIG/worker_04.mot
version=1
nRows=8
nColumns=50
inDegrees=yes
endheader
                time	         pelvis_tilt	         pelvis_list	     pelvis_rotation	           pelvis_tx	           pelvis_ty	           pelvis_tz	       hip_flexion_r	     hip_adduction_r	      hip_rotation_r	        knee_angle_r	       ankle_angle_r	         mtp_angle_r	       hip_flexion_l	     hip_adduction_l	      hip_rotation_l	        knee_angle_l	       ankle_angle_l	         mtp_angle_l	    lumbar_extension	      lumbar_bending	     lumbar_rotation	 ercspn_r/activation	 intobl_r/activation	 extobl_r/activation	    abd_r/activation	    add_r/activation	hamstrings_r/activation	bifemsh_r/activation	glut_max_r/activation	iliopsoas_r/activation	rect_fem_r/activation	  vasti_r/activation	gastroc_r/activation	 soleus_r/activation	tib_ant_r/activation	 ercspn_l/activation	 intobl_l/activation	 extobl_l/activation	    abd_l/activation	    add_l/activation	hamstrings_l/activation	bifemsh_l/activation	glut_max_l/activation	iliopsoas_l/activation	rect_fem_l/activation	  vasti_l/activation	gastroc_l/activation	 soleus_l/activation	tib_ant_l/activation	
          0.68872912	         -5.89958858	          4.66385078	        -12.62569601	          0.61985620	          0.88112677	          0.02163138	         -8.40779147	         -4.11234866	         15.26908846	         -8.60895753	         12.22551233	         24.30919051	         25.19924799	          0.13626513	         -5.06831631	          2.02883480	          5.21146510	          0.23001729	         -2.50743435	         -1.77453258	          1.82731351	          0.04924112	          0.00999999	          0.00999999	          0.07934079	          0.01089976	          0.02081802	          0.13575893	          0.07573517	          0.33816803	          0.00999999	          0.00999999	          0.31133845	          0.29428716	          0.01458848	          0.08264900	          0.15644942	          0.02055178	          0.01866463	          0.13122986	          0.03010810	          0.00999999	          0.00999999	          0.05453677	          0.01229575	          0.02567394	          0.00999999	          0.00999999	          0.26314772	
          0.70250370	         -6.01355872	          4.55203964	        -12.49406539	          0.63527346	          0.87923189	          0.02053595	         -8.60642140	         -3.97139562	         14.44954001	        -10.03218738	         11.97262190	         26.05434400	         24.85090757	          0.42294745	         -3.94050811	          1.19555335	          4.86784902	          0.21259352	         -2.19811518	         -2.09301588	          2.07333440	          0.07030556	          0.00999999	          0.00999999	          0.06452694	          0.03573631	          0.01779255	          0.11041114	          0.06159452	          0.30655355	          0.00999999	          0.00999999	          0.28594977	          0.28669943	          0.01186464	          0.06838626	          0.16759538	          0.01671452	          0.01517972	          0.13181624	          0.03233916	          0.01653746	          0.01677446	          0.04435411	          0.00999999	          0.02088031	          0.01556479	          0.01463200	          0.28812239	
          0.71627828	         -6.10961448	          4.43940255	        -12.28751400	          0.65101557	          0.87757990	          0.01934685	         -8.71008937	         -3.80528721	         13.58184062	        -11.70212151	         11.56933100	         27.85319549	         24.33483431	          0.71733313	         -2.84341883	          0.60683351	          4.33925865	          0.20951944	         -1.87826213	         -2.43432608	          2.30730946	          0.09305540	          0.00999999	          0.00999999	          0.05247900	          0.04403362	          0.01610136	          0.08979608	          0.05009410	          0.26692791	          0.00999999	          0.00999999	          0.25557053	          0.27000649	          0.00999999	          0.06778440	          0.16028076	          0.01359372	          0.03671534	          0.10720460	          0.03540043	          0.04712625	          0.03367097	          0.03607268	          0.00999999	          0.01698171	          0.01265866	          0.01190003	          0.32379186	
          0.73005286	         -6.18843369	          4.32574355	        -12.00136999	          0.66687776	          0.87638355	          0.01805511	         -8.66479712	         -3.60701377	         12.66034719	        -13.67078100	         10.94421569	         29.68876974	         23.71069720	          1.03387611	         -1.82321101	          0.18950823	          3.78449125	          0.19017680	         -1.56764963	         -2.79902002	          2.52672948	          0.11451923	          0.00999999	          0.00999999	          0.04268055	          0.04299069	          0.01763327	          0.07303010	          0.04074094	          0.23111627	          0.00999999	          0.00999999	          0.20785251	          0.24734519	          0.00999999	          0.06859542	          0.13035446	          0.01105561	          0.06219101	          0.08734692	          0.03777595	          0.03832723	          0.04795641	          0.02933749	          0.00999999	          0.01621915	          0.01029514	          0.00999999	          0.34955984	
          0.74382745	         -6.25009614	          4.21072057	        -11.63984889	          0.68271494	          0.87577846	          0.01668011	         -8.44381691	         -3.37704452	         11.67093548	        -15.94935018	         10.06375176	         31.47540492	         23.02161968	          1.36641054	         -0.88534911	         -0.16259582	          3.35581766	          0.17556415	         -1.27605886	         -3.18470171	          2.72744155	          0.12998655	          0.00999999	          0.00999999	          0.03471159	          0.05089845	          0.02302483	          0.05939452	          0.03313413	          0.20807518	          0.00999999	          0.00999999	          0.16904400	          0.20281678	          0.00999999	          0.06307359	          0.10601575	          0.00999999	          0.08502532	          0.08100745	          0.04222739	          0.03117108	          0.04894816	          0.02385983	          0.00999999	          0.01940266	          0.00999999	          0.00999999	          0.36905228	
          0.75760203	         -6.29487061	          4.09026043	        -11.20856068	          0.69840597	          0.87579176	          0.01524230	         -8.02813692	         -3.11524011	         10.59640482	        -18.54649715	          8.95585977	         33.04409037	         22.28703232	          1.70164403	         -0.02830087	         -0.47396272	          3.06141629	          0.16260627	         -1.01241707	         -3.58347449	          2.90574307	          0.14239406	          0.00999999	          0.00999999	          0.02823053	          0.06658276	          0.02938672	          0.04830487	          0.02694760	          0.18748352	          0.00999999	          0.00999999	          0.13748150	          0.16494850	          0.00999999	          0.05439122	          0.08622136	          0.00999999	          0.10820741	          0.07898683	          0.04523545	          0.02535108	          0.04159733	          0.01940492	          0.00999999	          0.02889236	          0.00999999	          0.00999999	          0.37294104	
          0.77137661	         -6.32365833	          3.95573670	        -10.71312005	          0.71383425	          0.87641258	          0.01376633	         -7.40408668	         -2.82190565	          9.41472875	        -21.45840378	          7.68143408	         34.14955234	         21.51194035	          2.02117099	          0.75406729	         -0.74452067	          2.91811971	          0.15203120	         -0.78723103	         -3.98346034	          3.06011369	          0.14793014	          0.00999999	          0.00999999	          0.02295956	          0.08065396	          0.03520675	          0.04384394	          0.02191616	          0.16637602	          0.00999999	          0.00999999	          0.11181208	          0.13415068	          0.00999999	          0.04711968	          0.07012282	          0.00999999	          0.12032266	          0.06423906	          0.04702710	          0.02061773	          0.03661757	          0.01578179	          0.00999999	          0.03455671	          0.00999999	          0.00999999	          0.36569457	
          0.78515119	         -6.33754874	          3.79107663	        -10.15916622	          0.72892047	          0.87761294	          0.01227229	         -6.56801971	         -2.49881281	          8.11277542	        -24.66986981	          6.31965908	         34.51778554	         20.69427354	          2.30210193	          1.47079863	         -0.95924049	          2.89781800	          0.14625702	         -0.60919320	         -4.36461765	          3.18977469	          0.14727298	          0.00999999	          0.00999999	          0.01867274	          0.09171645	          0.03582197	          0.04539198	          0.01782416	          0.14671456	          0.00999999	          0.00999999	          0.09093545	          0.10910317	          0.00999999	          0.04532482	          0.05703006	          0.00999999	          0.12282523	          0.05224487	          0.04840523	          0.01676816	          0.03499062	          0.01283515	          0.00999999	          0.02810457	          0.00999999	          0.00999999	          0.35082428	
